<?xml version="1.0" encoding="iso-8859-1"?>
<!-- Generator: Adobe Illustrator 21.1.0, SVG Export Plug-In . SVG Version: 6.00 Build 0)  -->
<svg version="1.1" id="_x31_" xmlns="http://www.w3.org/2000/svg" xmlns:xlink="http://www.w3.org/1999/xlink" x="0px" y="0px"
	 viewBox="0 0 512 512" style="enable-background:new 0 0 512 512;" xml:space="preserve">
<g>
	<path style="fill:#231815;" d="M326.9,379.173c-3.855-2.907-8.969-5.81-8.173-11.178c0.24-1.619,2.142-3.616,2.784-5.028
		c1.288-2.832,1.683-5.827,2.002-8.887c1.052-10.092,3.77-19.444,7.375-28.973c1.704-4.504,4.645-9.129,5.652-13.829
		c0.614-2.865,0.304-5.627,1.27-8.545c1.849-5.587,5.111-10.657,7.77-15.864c2.194-4.295,4.073-12.348,8.809-14.654
		c7.382-3.594,2.914,5.534,0.407,8.547c-4.292,5.159-7.164,10.53-10.129,16.599c-2.655,5.436-3.047,9.047-3.942,14.804
		c-0.896,5.757-4.202,11.486-5.895,17.078c-2.435,8.042-3.379,16.484-5.011,24.714c-0.804,4.056-1.671,8.136-2.371,12.21
		C326.762,370.159,328.582,375.693,326.9,379.173z"/>
	<path style="fill:#231815;" d="M370.174,271.1c22.933-1.772,46.683-1.047,69.652,0.318c14.339,0.853,28.683,2.139,43.048,2.455
		c8.651,0.19,27.161-5.278,28.988,6.888c0.657,4.376-1.132,11.295-3.269,15.222c-1.96,3.602-6.492,4.983-6.709-0.467
		c-0.209-5.247,8.069-9.551,5.668-15.106c-2.174-5.029-9.913-2.604-14.101-2.311c-23.145,1.618-47.182-2.063-70.277-3.262
		c-12.574-0.653-26.099-2.297-38.601-0.271c-4.981,0.807-10.891,3.044-15.954,1.998c-1.877-0.388-6.26-1.935-5.765-4.284
		C363.322,270.057,368.428,270.701,370.174,271.1z"/>
	<path style="fill:#231815;" d="M503.806,311.477c-5.419,13.701-9.788,27.07-16.4,40.35c-0.624,1.254-14.609,29.314-13.982,29.664
		c-3.549-1.978,4.085-21.066,4.946-23.025c3.817-8.683,7.951-17.162,11.383-26.011c1.973-5.087,4.431-9.866,6.167-15.066
		c1.555-4.658,5.219-20.774,11.844-21.645C507.106,295.83,504.102,309.363,503.806,311.477z"/>
	<path style="fill:#231815;" d="M317.64,379.011c17.188,15.529,42.902,6.639,63.589,6c17.25-0.533,34.584,0.887,51.856,0.904
		c9.796,0.01,19.586,0.257,29.379,0.287c3.23,0.01,4.988-0.759,5.903,2.218c0.132,0.431-2.171,8.705-0.389,8.4
		c5.071-0.867,6.901-12.388,2.851-14.788c-4.821-2.857-16.265-0.631-21.634-0.621c-18.221,0.032-36.673,2.124-54.872,0.923
		C368.786,380.647,343.263,378.966,317.64,379.011z"/>
	<path style="fill:#231815;" d="M227.08,405.814c5.392-3.508,6.529-7.622,12.315-8.299c12.932-1.513,25.336-4.064,38.424-4.128
		c6.784-0.033,13.402-0.891,20.111-1.834c3.765-0.529,13.2-3.562,16.696-1.823c2.65,1.318,2.963,16.709,6.438,9.216
		c0.663-1.43,0.436-12.61-0.76-13.754c-1.065-1.019-5.526-0.182-6.894-0.115c-13.86,0.681-27.201,5.824-41.169,5.592
		c-11.733-0.195-23.661-0.514-35.35-1.626c-3.396-0.323-6.929-1.622-8.474,0.592C226.305,392.661,227.353,401.958,227.08,405.814z"
		/>
	<path style="fill:#231815;" d="M296.118,402.747c-72.644,2.178-145.104,3.951-217.761,1.137
		c-17.182-0.666-34.401-1.062-51.595-0.726c-7.313,0.143-15.026-0.01-22.25,1.309c-3.597,0.657-6.587,0.885-2.647,3.03
		c4.801,2.613,14.604,1.51,19.879,1.739c10.134,0.44,20.281,0.614,30.424,0.682c14.46,0.098,28.908-0.321,43.366-0.415
		c74.785-0.484,149.422-2.696,224.179-4.56c38.715-0.965,77.347-1.274,116.064-1.608c18.37-0.158,36.875,0.174,55.197-1.322
		c3.988-0.326,11.585,0.126,15.18-2.042c1.661-1.002,2.199-0.371,0.716-1.384c-2.294-1.566-8.962-0.555-11.533-0.567
		c-7.723-0.036-15.449,0.193-23.167,0.442c-20.728,0.669-41.437,1.403-62.179,1.385
		C372.021,399.816,334.067,401.744,296.118,402.747z"/>
	<path style="fill:#231815;" d="M148.609,235.874c8.98-14.215,9.109-28.27,10.874-44.202c1.961-17.703,7.902-35.677,19.869-49.219
		c13.366-15.126,32.147-25.667,51.392-31.189c9.608-2.757,19.505-4.35,29.48-4.922c2.094-0.12,21,0.473,21.452-2.487
		c0.967-6.326-46.112,1.376-49.341,2.29c-20.311,5.748-38.404,16.613-52.73,32.127C154.591,165.362,147.673,199.973,148.609,235.874
		z"/>
	<path style="fill:#231815;" d="M282.903,116.967c-11.065,3.896-16.243,11.138-20.683,21.303
		c-4.932,11.29-12.798,20.546-23.489,26.668c-13.32,7.627-24.987,15.548-35.227,27.231c-4.955,5.653-9.445,11.717-13.246,18.208
		c-2.145,3.663-6.779,10.728-5.44,15.293c1.61,5.488,4.022-1.939,5.353-4.67c2.875-5.896,6.031-11.555,9.773-16.954
		c8.77-12.652,20.063-24.941,33.283-33.042c4.722-2.894,10.045-4.444,14.734-7.39c6.314-3.967,11.584-9.343,16.226-15.127
		C271.914,138.857,277.612,128.072,282.903,116.967z"/>
	<path style="fill:#231815;" d="M216.225,221.874c10.094-1.536,19.376,0.118,29.35-2.86c13.739-4.102,28.355-4.3,42.557-4.443
		c14.692-0.147,28.339-4.416,40.445-12.837c5.396-3.753,10.374-8.101,14.983-12.781c0.639-0.649,11.464-13.672,8.325-14.123
		c-3.426-0.492-9.552,8.486-11.49,10.48c-4.927,5.07-10.168,9.888-15.995,13.915c-11.255,7.778-25.07,13.082-38.926,12.691
		C264.802,211.332,232.322,204.583,216.225,221.874z"/>
	<path style="fill:#231815;" d="M199.967,218.479c6.286-3.458,12.722-6.815,18.009-11.744c3.806-3.548,6.401-7.92,9.699-11.89
		c9.93-11.955,23.125-23.681,38.321-28.15c6.693-1.968,13.575-1.752,20.459-2.334c8.565-0.724,17.102-1.737,25.68-2.317
		c7.662-0.518,15.375-0.792,23.038-0.147c1.266,0.107,17.924,1.856,17.588,0.545c-1.01-3.936-11.916-4.796-15.064-5.143
		c-7.877-0.867-15.877-0.526-23.759,0.096c-16.084,1.268-34.766,1.795-50.038,7.128C238.56,173.372,210.926,193.102,199.967,218.479
		z"/>
	<path style="fill:#231815;" d="M205.705,215.74c1.214,5.272,2.391,10.824,7.441,13.452c5.199,2.706,10.451,3.84,14.841,8.374
		c5.404,5.581,8.468,14.403,10.13,21.855c0.623,2.796-0.63,20.596,1.309,21.269c4.908,1.704,4.37-13.995,4.121-16.001
		c-1.035-8.332-4.912-15.197-8.86-22.406C228.099,230.255,219.351,219.925,205.705,215.74z"/>
	<path style="fill:#231815;" d="M195.035,289.647c0.107,3.834,0.756,9.293,5.057,10.364c2.44,0.608,7.058-1.938,9.168-2.678
		c5.632-1.976,11.567-2.754,17.047-5.117c3.396-1.464,10.014-3.769,12.527-6.672c1.772-2.047,2.557-4.202-0.645-4.603
		c-3.882-0.486-10.118,5.658-13.228,7.466C215.161,294.103,205.691,292.493,195.035,289.647z"/>
	<path style="fill:#231815;" d="M149.973,225.555c-3.838-2.092-8.631-4.918-12.875-2.56c-3.371,1.873-6.336,7.481-9.355,10.124
		c-4.929,4.315-10.729,7.024-15.137,12.004c-2.776,3.137-9.849,11.545-8.637,16.285c1.782,6.966,5.036-1.728,6.346-4.448
		c2.753-5.717,6.322-11.577,11.239-15.7C129.746,234.391,141.349,232.127,149.973,225.555z"/>
	<path style="fill:#231815;" d="M82.793,329.532c-15.432,3.618-26.61,16.289-32.347,30.46c-4.633,11.446-11.766,28.128-1.453,38.35
		c12.431,12.322,35.163,12.089,51.478,12.709c19.982,0.76,39.156-3.477,58.956-5.127c16.743-1.395,33.861-4.386,50.697-3.35
		c3.142,0.193,14.369,3.324,6.977-1.895c-5.742-4.054-15.64-3.097-22.183-2.754c-37.217,1.952-74.91,14.038-112.244,9.195
		c-8.77-1.138-18.878-3.413-26.14-8.678c-8.317-6.03-7.997-12.615-4.732-21.799C57.928,359.415,69.959,342.426,82.793,329.532z"/>
	<path style="fill:#231815;" d="M128.793,368.239c8.95,4.511,16.587,6.506,26.463,4.915c11.659-1.879,23.57-1.95,35.322-2.924
		c12.621-1.046,25.351-3.188,38.045-2.425c5.899,0.355,13.344,1.207,17.882,5.482c1.54,1.451,6.343,11.776,6.933,11.494
		c3.571-1.706,0.402-9.791-1.142-12.113c-3.029-4.556-8.24-6.862-13.384-8.078c-13.503-3.191-27.863,0.057-41.277,2.094
		C174.777,370.157,151.382,360.791,128.793,368.239z"/>
	<path style="fill:#231815;" d="M237.478,377.222c-0.245,1.671-1.985,7.156-1.112,8.618c1.027,1.719,0.189-0.026,1.686,0.643
		c2.724,1.216,4.223-1.443,3.659,2.682c-0.347,2.539-4.103,2.988-2.646,6.062c2.731,5.762,6.1-5.324,5.81-7.94
		C244.388,382.89,242.035,378.673,237.478,377.222z"/>
	<path style="fill:#231815;" d="M234.284,390.217c-0.178,0.14-7.71,6.252-7.686,6.261c5.277,2.034-0.02,3.827-2.446,3.944
		c-1.117,0.054-14.221-1.208-8.486,3.892c2.155,1.916,13.061-0.307,15.235-1.514C235.356,400.329,236.386,394.593,234.284,390.217z"
		/>
	<path style="fill:#231815;" d="M197.296,313.351c-14.48,2.692-8.178,12.433-3.306,21.125c5.717,10.2,10.21,21.439,22.374,25.678
		c4.976,1.734,10.89-0.161,4.175-3.68c-5.625-2.947-10.864-4.778-15.52-9.57C196.753,338.397,195.465,324.637,197.296,313.351z"/>
	<path style="fill:#231815;" d="M107.948,269.929c-18.454-11.06-29.739,12.376-37.153,24.579
		c-13.257,21.818-30.079,41.357-40.86,64.614c-4.634,9.998-10.543,22.467-10.212,33.795c0.07,2.398,1.741,12.252,5.307,8.964
		c1.721-1.587,1.205-8.877,1.56-11.204c3.512-23.044,15.494-48.878,29.842-67.228c7.853-10.044,16.743-19.832,25.368-29.241
		C89.539,285.763,98.097,275.926,107.948,269.929z"/>
	<path style="fill:#231815;" d="M215.575,360.483c7.263,6.304,14.155,7.658,23.066,4.971c10.673-3.217,22.064-5.792,33.286-5.006
		c11.355,0.796,25.244,2.306,34.962,8.696c4.573,3.007,7.072,6.793,8.953,11.844c0.971,2.607,2.138,10.949,4.935,6.511
		c5.386-8.547-8.082-20.682-14.362-23.757c-7.236-3.543-15.525-4.631-23.445-5.28C260.246,356.604,238.116,356.348,215.575,360.483z
		"/>
	<path style="fill:#231815;" d="M306.272,378.933c-1.351,1.209-5.31,5.768-7.114,6.219c0.981-0.246,2.626-0.687,3.402,0.273
		c0.378,0.468-2.059,2.615-1.392,4.115c1.321,2.971,2.968,2.004,4.022,0.495c-0.139,0.199,1.336-5.506,1.363-5.639
		C306.934,382.502,307.34,380.693,306.272,378.933z"/>
	<path style="fill:#231815;" d="M290.602,385.02c-1.035,0.051-8.714,1.225-9.484,0.74c6.216,3.918-6.183,6.084-0.633,9.494
		C281.739,396.024,290.254,387.316,290.602,385.02z"/>
	<path style="fill:#231815;" d="M270.024,397.025c-0.347-1.326-1.556-8.964-3.586-8.903c-0.061,0.002-1.977,3.262-2.589,3.557
		c-1.756,0.847-4.14-1.794-6.31-0.586c-1.208,0.672-2.456,1.423-1.833,3.357c0.835,2.591,1.203,0.876,3.12,1.005
		c1.631,0.11,2.829-1.104,4.645-0.768C265.808,395.118,267.271,397.105,270.024,397.025z"/>
	<path style="fill:#231815;" d="M211.175,285.542c-0.505,1.044-4.535,8.26-2.423,9.17c0.347,0.15,2.373-1.813,3.054-1.876
		c1.868-0.174,2.602,1.499,4.552,1.415c2.715-0.117,2.676-0.21,3.109-2.187c0.701-3.201-1.327-1.975-2.201-2.556
		c-0.479-0.319-2.393,1.003-3.609,0.264C212.911,289.318,211.894,286.388,211.175,285.542z"/>
	<path style="fill:#231815;" d="M167.594,221.428c0.053,1.525,0.825,6.457,3.227,5.795c1.902-0.525,1.477-5.442,1.522-6.782
		c0.295-8.913-0.044-17.712,1.756-26.508c1.734-8.473,4.932-16.751,8.934-24.406c1.912-3.656,4.027-7.214,6.489-10.529
		c2.041-2.749,6.411-5.77,7.89-8.723c3.693-7.373-6.513,0.191-8.376,2.624c-4.28,5.589-7.402,12.869-10.398,19.234
		C171.725,186.821,166.906,205.115,167.594,221.428z"/>
	<path style="fill:#231815;" d="M192.597,265.807c-3.926-0.786-6.328-6.473-6.036-10.067c0.566-6.968,7.797-7.151,13.363-6.171
		c5.409,0.952,7.904,3.78,7.747,9.372C207.43,267.593,199.226,267.133,192.597,265.807z"/>
	<path style="fill:#231815;" d="M258.154,264.684c7.359-3.881,15.123-7.271,23.232-9.221c3.262-0.785,17.99-3.994,19.948,1.035
		c-1.541-3.958-25.328,4.276-27.867,5.283c-2.817,1.118-22.171,9.757-22.045,10.021
		C250.797,270.503,257.527,265.214,258.154,264.684z"/>
	<path style="fill:#231815;" d="M271.073,272.543c9.758-1,19.588-1.863,29.405-1.447c4.284,0.182,19.288,0.182,21.958,5.01
		c-0.658-1.189-10.341-0.933-11.467-1.03c-7.187-0.615-14.148-0.832-21.344-0.329c-3.587,0.251-29.081,1.271-29.125,1.574
		C260.7,274.945,269.891,272.908,271.073,272.543z"/>
	<path style="fill:#231815;" d="M265.664,284.156c8.101,1.648,16.217,3.49,23.977,6.38c4.634,1.725,15.195,5.219,16.332,11.096
		c-1.371-6.168-50.112-15.703-49.995-16.258C256.284,283.931,264.316,284.2,265.664,284.156z"/>
	<path style="fill:#231815;" d="M153.284,275.302c-5.006-0.732-18.829-3.119-18.283-10.699c-0.133,1.843,10.923,5.342,12.761,5.856
		c1.527,0.427,10.198,1.715,10.13,2.939C157.83,274.488,154.367,274.957,153.284,275.302z"/>
	<path style="fill:#231815;" d="M184.168,295.441c-2.94,2.856-8.713,12.158-13.979,9.923c1.125,0.477,12.691-16.271,14.896-13.873
		C185.526,291.969,184.352,294.911,184.168,295.441z"/>
	<path style="fill:#231815;" d="M170.023,289.933c-4.397,1.702-28.269,9.706-26.025-2.734c-0.948,5.258,14.39,2.81,16.315,2.265
		c2.273-0.644,13.802-5.081,14.197-3.998C174.825,286.334,170.799,289.232,170.023,289.933z"/>
	<path style="fill:#231815;" d="M115.755,346.014c-1.079-6.434-7.421-10.224-10.082-3.078c-3.021,8.114-3.498,21.411,2.012,28.507
		c1.114,1.434,6.545,6.461,7.023,1.483c0.225-2.342-6.264-8.608-7.138-11.493C105.857,355.78,108.431,346.091,115.755,346.014z"/>
	<path style="fill:#231815;" d="M190.319,326.071c-3.833-2.012-9.827-2.262-11.113,2.643c-0.554,2.112,0.8,5.901,0.904,8.03
		c0.283,5.821-1.609,10.917-1.943,16.664c-0.196,3.378-0.966,10.939,1.041,14.014c3.245,4.971,4.515,0.482,4.267-3.077
		c-0.364-5.238-1.79-10.387-1.471-15.694C182.444,341.353,186.361,332.187,190.319,326.071z"/>
	<path style="fill:#231815;" d="M238.605,106.613c8.958-1.406,17.769-3.67,26.783-4.742c4.44-0.528,20.462-2.89,23.239,2.146
		c2.338,4.24-7.027,9.987-9.609,12.542c-4.933,4.882-8.049,14.449-14.063,17.717c-2.195-4.331-0.849-15.551-8.88-10.557
		c-0.318-5.335-0.663-7.493-4.775-10.748c-1.664-1.317-3.856-3.491-5.689-4.509c-3.273-1.819-6.424-0.755-9.795-1.889
		C236.746,106.589,237.675,106.602,238.605,106.613z"/>
	<path style="fill:#231815;" d="M320.089,161.69c7.215,0,14.412,0.27,21.617,0.586c4.725,0.208,11.475-0.76,15.628,1.85
		c4.062,2.553,3.941,4.562,0.96,7.074c-4.374,3.685-9.3,6.462-13.584,10.524c-2.929,2.776-5.814,7.166-9.845,5.292
		c-4.508-2.097-4.047-9.721-7.216-13.085c-3.13-3.321-3.835-2.031-5.445-6.112c1.26-1.555,1.145-2.527-0.345-2.917
		c-1.032-0.61-2.121-1.101-3.266-1.474c-3.1-1.207-6.423-1.852-9.63-2.7C311.667,160.021,317.774,159.267,320.089,161.69z"/>
</g>
</svg>
