<?xml version="1.0" standalone="no"?>
<!DOCTYPE svg PUBLIC "-//W3C//DTD SVG 20010904//EN"
 "http://www.w3.org/TR/2001/REC-SVG-20010904/DTD/svg10.dtd">
<svg version="1.0" xmlns="http://www.w3.org/2000/svg"
 width="912.000000pt" height="912.000000pt" viewBox="0 0 912.000000 912.000000"
 preserveAspectRatio="xMidYMid meet">
<metadata>
Created by potrace 1.14, written by Peter Selinger 2001-2017
</metadata>
<g transform="translate(0.000000,912.000000) scale(0.100000,-0.100000)"
fill="#000000" stroke="none">
<path d="M4923 9023 c-6 -16 -48 -116 -93 -223 -89 -211 -103 -243 -124 -292
-8 -18 -63 -148 -121 -288 -59 -140 -113 -268 -120 -285 -7 -16 -34 -82 -60
-145 -26 -63 -67 -160 -90 -215 -42 -101 -57 -136 -60 -145 -7 -19 -37 -88
-45 -102 -6 -10 -10 -25 -10 -33 0 -8 -5 -15 -12 -15 -6 0 -9 -3 -6 -6 4 -3
-14 -51 -38 -106 -24 -56 -44 -107 -44 -114 0 -8 -4 -14 -10 -14 -5 0 -10 -11
-10 -24 0 -13 -7 -29 -15 -36 -8 -7 -15 -19 -15 -26 0 -8 -13 -43 -29 -79 -16
-35 -27 -66 -23 -69 3 -3 0 -6 -6 -6 -7 0 -12 -6 -12 -14 0 -8 -14 -45 -31
-83 -17 -37 -45 -104 -62 -148 -17 -44 -35 -81 -39 -83 -4 -2 -8 -9 -8 -15 0
-14 -44 -125 -54 -134 -3 -3 -6 -15 -6 -25 0 -10 -5 -18 -12 -18 -6 0 -9 -3
-5 -6 5 -5 -9 -44 -48 -129 -8 -16 -26 -59 -41 -95 -14 -36 -31 -76 -37 -90
-6 -14 -11 -27 -12 -30 -1 -3 -9 -22 -18 -44 -9 -21 -17 -40 -17 -41 0 -1 -10
-24 -22 -51 -12 -27 -23 -51 -23 -54 0 -3 -11 -27 -23 -54 -12 -27 -22 -51
-22 -55 0 -3 -10 -24 -21 -46 -12 -22 -21 -40 -20 -40 4 0 -37 -101 -91 -225
-10 -25 -23 -54 -27 -65 -48 -115 -191 -457 -206 -490 -8 -16 -24 -55 -35 -85
-12 -30 -32 -78 -46 -108 -13 -29 -24 -55 -24 -58 0 -3 -9 -24 -19 -47 -10
-23 -31 -71 -45 -107 -15 -36 -31 -74 -36 -85 -5 -11 -21 -49 -36 -85 -14 -36
-37 -89 -50 -118 -13 -29 -24 -55 -24 -58 0 -3 -11 -30 -25 -60 -14 -30 -25
-56 -25 -58 0 -2 -8 -21 -17 -42 -9 -22 -17 -41 -18 -44 -4 -12 -19 -48 -37
-90 -11 -25 -26 -58 -33 -75 -47 -112 -69 -163 -110 -265 -26 -63 -51 -119
-56 -125 -5 -5 -9 -15 -9 -22 0 -7 -12 -38 -26 -70 -15 -31 -27 -62 -28 -67
-1 -6 -9 -27 -18 -46 -9 -19 -42 -96 -73 -170 -31 -74 -75 -177 -97 -229 -32
-75 -38 -95 -27 -102 8 -5 17 -9 20 -9 3 0 15 -8 27 -18 17 -14 231 -143 376
-227 19 -11 74 -44 121 -73 48 -28 91 -52 96 -52 5 0 9 -4 9 -10 0 -5 7 -10
15 -10 8 0 15 -4 15 -10 0 -5 4 -10 10 -10 5 0 39 -18 75 -40 36 -22 69 -40
74 -40 5 0 11 -3 13 -7 4 -10 206 -133 219 -133 5 0 9 -4 9 -10 0 -5 4 -10 9
-10 6 0 53 -27 106 -60 53 -33 97 -60 99 -60 1 0 54 -31 117 -69 296 -179 350
-211 359 -211 5 0 13 -6 17 -12 4 -7 29 -24 56 -38 26 -13 47 -28 47 -32 0 -5
6 -8 13 -8 7 0 36 -16 66 -35 29 -19 55 -35 57 -35 2 0 41 -23 87 -52 45 -28
91 -56 102 -62 63 -35 221 -132 223 -138 2 -5 8 -8 13 -8 6 0 35 -16 65 -35
30 -19 59 -35 64 -35 6 0 10 -4 10 -9 0 -5 8 -11 18 -14 23 -8 76 -40 80 -49
2 -5 9 -8 16 -8 11 0 13 770 13 4065 0 2236 0 4065 -1 4065 -1 0 -6 -12 -13
-27z"/>
<path d="M5150 4987 c0 -2237 2 -4067 5 -4067 6 0 111 63 230 138 44 28 123
77 175 108 52 32 127 78 165 103 39 25 72 46 75 46 6 1 113 69 152 96 15 10
29 19 32 19 3 0 49 28 103 62 54 33 116 72 138 86 22 14 52 33 67 44 15 10 31
18 36 18 4 0 17 8 28 18 10 10 34 25 52 32 17 8 32 18 32 21 0 4 14 12 30 19
17 7 30 16 30 21 0 5 5 9 10 9 6 0 29 12 53 27 23 15 50 32 59 38 10 5 90 55
178 110 88 55 173 107 188 116 15 9 131 80 257 159 127 78 297 184 379 234 81
50 150 96 153 102 2 6 -30 94 -72 195 -42 101 -78 191 -80 199 -2 8 -15 41
-29 73 -14 32 -26 64 -26 72 0 8 -4 15 -10 15 -5 0 -9 3 -9 8 1 4 0 10 -1 15
-1 4 -3 10 -5 15 -4 13 -17 47 -36 89 -10 24 -19 45 -19 48 0 3 -8 24 -19 48
-21 48 -69 166 -76 187 -1 3 -7 19 -14 35 -7 17 -40 100 -74 185 -34 85 -65
157 -69 158 -5 2 -8 10 -8 17 0 7 -22 68 -49 134 -27 67 -47 121 -44 121 4 0
0 8 -8 18 -8 9 -21 35 -28 57 -8 22 -22 58 -31 80 -19 43 -110 268 -192 475
-27 69 -53 134 -58 145 -25 53 -80 190 -80 197 0 4 -11 31 -24 60 -14 29 -45
105 -70 168 -69 177 -156 390 -177 437 -10 24 -19 47 -19 53 0 6 -5 18 -10 28
-17 28 -150 365 -150 379 0 7 -4 13 -9 13 -5 0 -12 12 -16 27 -3 15 -13 43
-22 62 -9 20 -17 41 -18 47 -2 6 -10 27 -18 45 -9 19 -30 70 -47 114 -18 44
-38 94 -45 110 -7 17 -21 50 -30 75 -10 25 -23 59 -30 75 -7 17 -66 161 -129
320 -64 160 -121 299 -125 310 -5 11 -16 36 -24 55 -9 19 -23 55 -32 80 -20
55 -28 75 -48 120 -9 19 -39 94 -67 165 -28 72 -58 143 -66 159 -8 16 -14 33
-14 37 0 5 -11 33 -25 63 -14 30 -25 58 -25 62 0 6 -27 70 -71 171 -11 24 -19
47 -19 53 0 6 -5 18 -10 28 -10 16 -87 204 -94 227 -2 6 -8 23 -15 40 -7 16
-40 97 -73 180 -34 82 -63 152 -65 154 -1 2 -3 -1826 -3 -4062z"/>
<path d="M9053 8009 c-32 -34 -89 -95 -128 -135 -38 -40 -142 -148 -230 -240
-88 -92 -188 -196 -221 -231 -34 -35 -119 -124 -190 -199 -71 -74 -158 -166
-194 -203 -92 -96 -408 -425 -471 -492 -126 -133 -360 -378 -439 -459 -91 -94
-370 -387 -407 -427 -13 -13 -23 -28 -23 -32 0 -8 96 -252 126 -319 7 -18 14
-39 14 -47 0 -8 3 -15 8 -15 4 0 13 -19 20 -42 7 -24 22 -61 32 -83 10 -22 25
-58 33 -80 13 -38 205 -517 232 -580 7 -16 25 -61 40 -100 15 -38 33 -83 40
-100 7 -16 25 -61 40 -100 15 -38 33 -83 40 -100 32 -74 87 -211 90 -225 2 -8
4 -16 5 -17 2 -2 3 -6 4 -10 1 -5 10 -25 19 -45 9 -21 69 -171 134 -333 65
-162 121 -295 125 -295 5 0 7 3 7 8 -1 4 0 9 1 12 2 6 10 39 15 65 3 11 6 27
7 35 2 8 6 20 10 25 3 6 9 26 14 45 10 47 9 42 40 150 14 52 27 100 29 105 1
6 5 18 10 27 4 10 8 29 9 43 0 14 4 25 7 25 3 0 6 6 7 13 0 6 3 21 6 32 3 11
16 61 30 110 13 50 31 114 39 143 9 28 13 52 10 52 -3 0 -1 6 5 13 5 6 12 26
15 44 3 17 8 36 11 41 3 4 8 22 11 38 10 47 10 48 18 62 5 6 6 16 2 21 -3 5
-1 12 4 15 5 3 12 22 16 43 3 20 25 100 47 176 22 77 41 147 43 156 3 9 12 43
21 76 9 33 18 67 19 75 2 8 4 17 6 20 1 3 3 10 4 15 2 6 4 12 5 15 1 3 3 12 5
20 2 8 31 114 65 235 69 251 68 247 75 278 3 12 12 45 20 72 15 52 46 160 71
255 25 93 66 241 91 330 14 47 26 93 28 103 2 10 7 27 10 37 3 10 8 27 10 37
2 10 36 133 75 273 69 248 75 271 84 308 2 9 19 68 36 130 18 62 33 119 34
125 2 7 6 19 9 27 5 14 44 157 51 190 2 8 10 35 17 60 14 51 17 63 23 88 3 9
5 17 6 17 1 0 3 7 5 15 1 8 17 67 35 130 18 63 33 122 35 130 2 8 4 15 5 15 1
0 3 8 5 17 2 9 17 67 34 128 17 61 31 117 31 125 0 8 5 15 11 15 5 0 8 4 5 9
-3 5 1 29 8 55 8 25 13 46 11 46 -2 0 -29 -28 -62 -61z"/>
<path d="M1520 7342 c0 -5 -8 -17 -18 -28 -9 -10 -53 -64 -97 -119 -43 -55
-82 -102 -85 -105 -3 -3 -21 -25 -40 -50 -19 -25 -37 -47 -40 -50 -3 -3 -42
-50 -85 -105 -80 -100 -97 -121 -125 -155 -64 -76 -87 -105 -146 -180 -36 -47
-69 -87 -73 -90 -3 -3 -19 -23 -36 -45 -16 -22 -34 -45 -40 -51 -21 -23 -51
-60 -80 -99 -17 -21 -37 -47 -45 -56 -16 -17 -23 -26 -80 -99 -42 -54 -62 -78
-75 -94 -6 -6 -30 -36 -55 -66 -25 -30 -48 -56 -52 -58 -5 -2 -8 -10 -8 -17 0
-7 -4 -15 -8 -17 -4 -1 -50 -55 -101 -118 -51 -63 -100 -124 -109 -135 -10
-11 -33 -40 -52 -65 -19 -25 -38 -46 -42 -48 -7 -3 -12 -32 -5 -32 2 0 102 37
127 47 8 3 23 8 34 10 10 2 33 10 50 17 17 8 51 21 76 29 25 8 86 30 135 47
50 18 95 33 100 35 6 1 21 6 35 12 28 12 150 54 165 58 6 1 17 5 25 8 8 4 53
20 100 36 106 37 400 141 500 176 41 15 80 28 85 30 18 4 49 16 67 26 10 5 26
9 36 9 10 0 21 3 25 6 3 4 48 21 99 39 l93 32 -2 44 c-1 24 -6 62 -12 84 -6
22 -13 54 -16 70 -3 17 -10 57 -16 90 -7 33 -13 69 -15 80 -1 11 -3 20 -4 20
-2 0 -4 14 -14 79 -4 22 -10 56 -16 75 -9 37 -30 138 -35 175 -2 12 -6 35 -10
51 -6 31 -42 215 -49 250 -2 11 -14 73 -26 138 -12 64 -26 117 -31 117 -5 0
-9 -4 -9 -8z"/>
<path d="M1734 7324 c3 -16 8 -40 11 -54 3 -14 10 -45 15 -70 5 -25 12 -58 15
-74 2 -16 10 -55 16 -85 7 -31 13 -67 14 -81 2 -14 4 -25 5 -25 2 0 15 -61 25
-120 2 -11 6 -33 9 -50 3 -16 9 -46 12 -65 8 -46 13 -70 20 -100 3 -14 7 -34
9 -45 2 -11 11 -58 20 -105 9 -47 18 -94 20 -105 6 -35 14 -75 19 -93 3 -9 7
-33 10 -52 9 -54 16 -93 22 -111 2 -9 7 -32 9 -50 6 -39 13 -74 15 -74 1 0 5
-20 14 -75 2 -14 15 -83 29 -155 14 -71 29 -146 33 -165 4 -19 7 -43 8 -52 0
-10 3 -18 6 -18 3 0 6 -12 7 -27 0 -16 4 -41 7 -58 8 -37 14 -67 21 -102 3
-16 10 -50 15 -78 14 -67 19 -94 26 -135 4 -19 8 -42 10 -50 36 -182 47 -239
50 -257 5 -31 12 -63 19 -93 3 -14 7 -38 10 -55 3 -16 8 -43 12 -60 3 -16 7
-39 8 -50 1 -11 5 -27 8 -35 3 -8 8 -31 11 -50 2 -19 9 -60 15 -90 6 -30 13
-66 16 -80 7 -37 24 -121 31 -155 3 -16 7 -41 9 -55 3 -21 18 -96 40 -200 3
-14 9 -47 15 -75 5 -27 12 -61 14 -75 3 -13 8 -41 11 -61 3 -20 9 -50 14 -67
5 -17 7 -33 3 -36 -3 -3 -1 -6 4 -6 8 0 32 45 39 75 2 10 30 74 55 130 5 11
26 61 46 110 20 50 42 104 49 120 7 17 29 71 49 120 21 50 41 99 46 110 34 76
50 115 50 119 0 3 11 30 25 60 14 30 25 61 25 68 0 8 4 18 8 24 5 5 23 45 41
89 19 44 38 91 44 105 6 14 11 27 12 30 1 3 6 16 12 30 6 14 27 66 48 115 20
50 42 104 50 120 7 17 29 68 48 115 41 100 53 130 80 190 11 25 20 50 21 55 1
6 4 15 8 20 4 6 27 62 53 125 25 63 52 129 59 145 8 17 44 104 81 194 l68 164
-24 43 c-22 41 -89 147 -216 341 -29 46 -53 87 -53 93 0 5 -4 10 -10 10 -5 0
-10 5 -10 10 0 6 -9 23 -19 38 -32 46 -136 206 -140 217 -2 6 -17 29 -32 52
-16 23 -29 46 -29 52 0 6 -4 11 -9 11 -5 0 -14 14 -21 30 -7 17 -16 30 -21 30
-5 0 -9 4 -9 10 0 8 -65 117 -87 145 -5 6 -31 47 -58 93 -28 45 -57 82 -65 83
-8 0 -22 2 -30 3 -8 2 -44 7 -80 11 -63 7 -97 11 -170 20 -19 2 -55 7 -80 9
-41 5 -88 11 -160 21 -14 2 -46 6 -73 9 -80 10 -141 18 -167 22 -14 2 -63 6
-109 10 l-84 7 7 -29z"/>
<path d="M7485 2153 c-16 -9 -35 -22 -43 -29 -7 -8 -17 -14 -22 -14 -7 0 -77
-43 -130 -80 -8 -6 -25 -16 -37 -23 -38 -21 -218 -131 -223 -137 -10 -12 -222
-140 -231 -140 -5 0 -9 -3 -9 -8 0 -4 -17 -16 -37 -27 -21 -11 -42 -24 -48
-28 -5 -5 -93 -60 -195 -123 -102 -62 -192 -118 -200 -124 -23 -16 -232 -148
-257 -162 -85 -49 -169 -103 -171 -110 -2 -4 -7 -8 -12 -8 -11 0 -114 -63
-118 -72 -2 -5 -8 -8 -12 -8 -5 0 -29 -13 -53 -30 -25 -16 -50 -30 -56 -30 -6
0 -11 -3 -11 -8 0 -4 -17 -16 -37 -27 -21 -11 -42 -24 -48 -28 -15 -12 -178
-116 -195 -125 -8 -4 -33 -18 -54 -32 l-39 -24 29 -13 c82 -36 127 -55 209
-88 50 -20 104 -43 120 -50 17 -7 63 -27 103 -44 40 -17 78 -31 85 -31 7 0 19
-6 26 -12 6 -7 15 -13 19 -14 4 0 16 -4 27 -9 11 -4 58 -24 105 -43 47 -19 99
-40 115 -47 17 -8 71 -30 120 -50 50 -21 106 -44 125 -52 83 -36 99 -43 185
-78 50 -20 104 -42 120 -49 17 -8 71 -30 120 -51 50 -20 108 -45 130 -55 22
-10 43 -15 47 -12 5 6 77 247 93 312 6 27 63 234 73 267 6 17 8 34 4 37 -3 3
-1 6 4 6 5 0 10 8 11 18 0 9 3 26 7 37 10 38 34 120 45 153 5 18 10 35 10 37
1 3 1 6 2 8 0 1 2 9 4 17 7 27 14 54 35 130 12 41 23 82 25 90 2 8 4 15 5 15
1 0 5 11 13 45 11 45 30 113 48 171 11 37 21 75 24 85 3 19 36 139 76 279 11
39 22 78 24 89 2 10 12 44 21 75 10 31 18 61 19 66 2 6 12 45 25 88 12 44 20
80 18 82 -2 2 -16 -4 -33 -12z"/>
<path d="M2747 2034 c-3 -3 -1 -18 4 -33 6 -14 10 -26 9 -26 -2 0 2 -24 14
-85 2 -8 6 -26 9 -40 4 -14 9 -37 12 -52 5 -27 8 -42 20 -98 3 -14 10 -45 15
-70 5 -25 16 -76 24 -115 9 -38 18 -84 20 -102 3 -18 7 -36 9 -40 3 -5 8 -28
12 -53 4 -25 8 -47 10 -51 2 -3 7 -20 10 -37 3 -18 12 -62 21 -99 9 -38 17
-77 19 -88 5 -32 14 -76 25 -125 6 -25 12 -55 15 -68 2 -13 6 -31 9 -40 3 -9
8 -33 11 -52 3 -19 11 -55 16 -80 6 -25 12 -52 14 -60 22 -104 37 -172 44
-202 5 -20 6 -39 3 -42 -3 -4 0 -6 6 -6 6 0 9 -7 6 -15 -3 -8 -2 -20 2 -27 4
-6 8 -21 9 -32 3 -38 47 -231 53 -238 4 -3 54 14 112 39 58 25 119 51 135 58
17 7 57 25 90 40 66 30 96 42 108 44 4 0 22 8 40 18 17 9 37 18 43 19 6 1 27
9 45 17 138 63 199 89 214 92 6 2 40 17 78 34 37 17 70 31 72 31 2 0 28 11 57
24 75 33 92 39 101 38 4 -1 7 2 7 8 0 5 5 10 12 10 12 0 121 45 236 96 29 13
55 24 57 24 2 0 28 11 57 24 29 13 81 36 116 51 34 15 62 30 62 34 0 3 -19 17
-43 30 -23 14 -71 43 -107 66 -36 23 -68 43 -72 44 -7 2 -103 63 -124 78 -5 4
-19 13 -30 19 -55 31 -69 40 -82 52 -7 6 -19 12 -27 12 -7 0 -15 4 -17 8 -3 7
-229 152 -252 161 -6 2 -15 8 -21 13 -5 5 -44 29 -85 55 -41 25 -104 65 -140
88 -36 23 -72 44 -80 48 -8 4 -75 45 -149 92 -73 47 -138 85 -142 85 -5 0 -9
4 -9 9 0 5 -8 11 -17 14 -10 4 -49 26 -88 51 -88 57 -207 130 -220 135 -5 2
-14 8 -20 13 -5 5 -62 41 -125 80 -63 39 -134 83 -157 99 -44 31 -47 32 -56
23z"/>
</g>
</svg>
