<?xml version="1.0" standalone="no"?>
<!DOCTYPE svg PUBLIC "-//W3C//DTD SVG 20010904//EN"
 "http://www.w3.org/TR/2001/REC-SVG-20010904/DTD/svg10.dtd">
<svg version="1.0" xmlns="http://www.w3.org/2000/svg"
 width="536.000000pt" height="536.000000pt" viewBox="0 0 536.000000 536.000000"
 preserveAspectRatio="xMidYMid meet">
<metadata>
Created by potrace 1.14, written by Peter Selinger 2001-2017
</metadata>
<g transform="translate(0.000000,536.000000) scale(0.100000,-0.100000)"
fill="#000000" stroke="none">
<path d="M2946 5289 c-9 -19 -61 -144 -116 -279 -106 -256 -183 -441 -208
-500 -9 -19 -16 -40 -18 -45 -1 -6 -11 -31 -22 -56 -12 -25 -31 -70 -42 -100
-12 -30 -27 -67 -35 -84 -38 -89 -70 -171 -68 -177 2 -5 -2 -8 -7 -8 -6 0 -10
-5 -10 -11 0 -6 -13 -41 -28 -77 -81 -189 -157 -378 -154 -384 1 -5 -2 -8 -8
-8 -5 0 -10 -7 -10 -15 0 -27 -43 -102 -48 -85 -3 8 -39 66 -80 130 -41 63
-96 149 -123 190 -26 41 -53 80 -58 87 -6 7 -11 15 -11 17 0 3 -29 50 -65 103
-48 71 -72 98 -88 100 -12 1 -49 6 -82 12 -33 6 -78 12 -100 15 -22 2 -51 6
-65 10 -14 3 -45 8 -70 10 -25 3 -56 7 -70 10 -14 3 -45 7 -70 10 -25 3 -54 8
-65 10 -11 2 -47 7 -80 11 -33 3 -63 7 -67 8 -3 1 -86 -97 -183 -218 -97 -121
-184 -229 -193 -240 -9 -11 -33 -40 -52 -65 -19 -25 -37 -47 -40 -50 -17 -16
-601 -752 -598 -755 2 -1 156 49 343 112 187 63 347 116 355 118 8 2 103 34
210 70 107 36 200 67 205 69 6 2 17 6 25 9 8 3 27 8 42 11 14 3 33 8 41 12 12
4 17 -7 23 -48 8 -56 10 -67 14 -70 1 -2 3 -12 5 -23 9 -52 15 -86 30 -155 9
-41 19 -86 21 -100 2 -14 7 -36 10 -50 3 -14 8 -34 11 -45 2 -11 7 -33 9 -50
3 -16 10 -50 15 -75 5 -25 12 -58 15 -75 2 -16 7 -41 11 -55 9 -35 34 -157 48
-230 3 -14 9 -47 15 -75 6 -27 12 -59 14 -70 3 -11 12 -56 21 -100 9 -44 18
-91 20 -105 2 -14 4 -25 5 -25 20 0 -71 -254 -145 -406 -7 -15 -10 -31 -6 -36
7 -10 238 -153 247 -153 13 0 36 -32 40 -57 3 -16 12 -62 21 -103 8 -41 17
-84 19 -95 2 -11 6 -31 9 -45 3 -14 7 -35 10 -48 2 -13 6 -31 9 -40 3 -9 8
-32 11 -50 5 -28 52 -266 59 -297 3 -10 15 -69 23 -110 2 -11 6 -36 9 -55 3
-19 8 -38 10 -41 2 -4 6 -24 10 -45 3 -21 12 -67 20 -103 8 -36 17 -77 20 -91
5 -30 19 -89 23 -104 1 -5 44 11 129 50 29 13 55 24 59 24 3 0 24 9 47 20 23
11 158 69 301 131 143 61 276 118 295 126 19 9 40 17 45 19 6 1 51 20 102 43
100 44 101 44 198 1 28 -12 68 -30 90 -40 183 -80 241 -105 245 -106 3 0 21
-8 40 -16 19 -9 38 -16 43 -17 4 0 20 -7 35 -16 31 -17 419 -186 474 -205 21
-8 39 -12 41 -9 3 4 45 160 53 198 3 14 7 28 10 33 3 4 7 17 9 28 6 30 55 213
62 230 3 8 7 20 8 25 8 35 88 329 101 372 9 29 17 58 18 65 2 7 9 33 16 58 7
25 14 50 16 55 1 6 14 53 28 105 15 52 29 103 31 113 10 46 19 56 90 98 41 24
75 50 75 57 0 11 -19 59 -52 127 -16 35 -12 111 8 165 3 8 44 152 90 320 46
168 89 323 96 345 6 22 12 45 14 50 1 6 7 30 14 55 7 25 14 52 16 60 6 25 72
262 84 304 6 21 13 46 16 55 3 15 71 261 169 616 26 94 49 179 52 190 6 26 9
37 16 55 3 8 9 29 13 45 4 17 8 35 10 40 1 6 16 62 34 125 17 63 33 123 35
133 2 9 6 21 9 25 3 5 7 19 10 33 8 41 123 457 146 532 5 15 6 27 3 27 -3 0
-30 -26 -60 -57 -30 -32 -132 -138 -226 -237 -95 -98 -197 -204 -227 -236 -30
-31 -150 -155 -266 -276 -116 -120 -233 -241 -259 -269 -26 -27 -136 -142
-244 -253 -108 -112 -197 -208 -199 -213 -9 -25 -37 -4 -48 36 -2 9 -228 550
-306 735 -18 41 -36 79 -40 85 -4 5 -8 19 -8 32 0 13 -4 23 -10 23 -5 0 -10 6
-10 14 0 7 -17 53 -39 102 -21 49 -60 141 -86 204 -44 107 -64 155 -86 205 -9
21 -161 385 -230 554 -22 52 -41 96 -44 99 -2 2 -11 -11 -19 -29z"/>
</g>
</svg>
